<svg width="100" height="19" viewBox="0 0 100 19" fill="none" xmlns="http://www.w3.org/2000/svg">
<path d="M13.2148 14.88V18H0.206844V1.2H12.9028V4.32H4.07084V7.968H11.8708V10.992H4.07084V14.88H13.2148ZM16.3084 1.2H23.9404C25.7644 1.2 27.3724 1.552 28.7644 2.256C30.1724 2.944 31.2604 3.92 32.0284 5.184C32.8124 6.448 33.2044 7.92 33.2044 9.6C33.2044 11.28 32.8124 12.752 32.0284 14.016C31.2604 15.28 30.1724 16.264 28.7644 16.968C27.3724 17.656 25.7644 18 23.9404 18H16.3084V1.2ZM23.7484 14.808C25.4284 14.808 26.7644 14.344 27.7564 13.416C28.7644 12.472 29.2684 11.2 29.2684 9.6C29.2684 8 28.7644 6.736 27.7564 5.808C26.7644 4.864 25.4284 4.392 23.7484 4.392H20.1964V14.808H23.7484ZM39.3822 4.368H34.0062V1.2H48.6462V4.368H43.2702V18H39.3822V4.368ZM63.7461 14.88V18H50.7381V1.2H63.4341V4.32H54.6021V7.968H62.4021V10.992H54.6021V14.88H63.7461ZM74.8328 18.288C73.1208 18.288 71.5688 17.92 70.1768 17.184C68.8008 16.432 67.7128 15.4 66.9128 14.088C66.1288 12.76 65.7368 11.264 65.7368 9.6C65.7368 7.936 66.1288 6.448 66.9128 5.136C67.7128 3.808 68.8008 2.776 70.1768 2.04C71.5688 1.288 73.1288 0.912 74.8568 0.912C76.3128 0.912 77.6248 1.168 78.7928 1.68C79.9768 2.192 80.9688 2.928 81.7688 3.888L79.2728 6.192C78.1368 4.88 76.7288 4.224 75.0488 4.224C74.0088 4.224 73.0808 4.456 72.2648 4.92C71.4488 5.368 70.8088 6 70.3448 6.816C69.8968 7.632 69.6728 8.56 69.6728 9.6C69.6728 10.64 69.8968 11.568 70.3448 12.384C70.8088 13.2 71.4488 13.84 72.2648 14.304C73.0808 14.752 74.0088 14.976 75.0488 14.976C76.7288 14.976 78.1368 14.312 79.2728 12.984L81.7688 15.288C80.9688 16.264 79.9768 17.008 78.7928 17.52C77.6088 18.032 76.2888 18.288 74.8328 18.288ZM99.8023 1.2V18H95.9143V11.112H88.2823V18H84.3943V1.2H88.2823V7.824H95.9143V1.2H99.8023Z" fill="white"/>
</svg>
