<svg width="171" height="255" viewBox="0 0 171 255" fill="none" xmlns="http://www.w3.org/2000/svg">
<path opacity="0.5" d="M84.737 0C73.6092 4.86413e-07 62.5903 2.19179 52.3096 6.45022C42.0288 10.7087 32.6875 16.9503 24.8189 24.8189C16.9503 32.6875 10.7087 42.0288 6.45022 52.3096C2.19179 62.5903 -9.72825e-07 73.6092 0 84.737L84.737 84.737L84.737 0Z" fill="url(#paint0_linear)"/>
<path opacity="0.5" d="M170.105 169.632C170.105 158.504 167.901 147.485 163.619 137.204C159.337 126.924 153.06 117.582 145.148 109.714C137.235 101.845 127.842 95.6034 117.503 91.345C107.165 87.0866 96.0847 84.8948 84.8947 84.8948L84.8947 169.632L170.105 169.632Z" fill="url(#paint1_linear)"/>
<path opacity="0.5" d="M85.0526 84.8948C96.1804 84.8948 107.199 82.703 117.48 78.4446C127.761 74.1861 137.102 67.9444 144.971 60.0759C152.839 52.2073 159.081 42.866 163.339 32.5852C167.598 22.3045 169.79 11.2856 169.79 0.157776L85.0525 0.157791L85.0526 84.8948Z" fill="url(#paint2_linear)"/>
<path opacity="0.5" d="M84.8948 84.8948C84.8948 96.0848 82.703 107.165 78.4446 117.503C74.1861 127.842 67.9444 137.235 60.0759 145.148C52.2073 153.06 42.866 159.337 32.5852 163.619C22.3044 167.901 11.2856 170.105 0.157765 170.105L0.157768 84.8948L84.8948 84.8948Z" fill="url(#paint3_linear)"/>
<path opacity="0.5" d="M84.8948 169.79C84.8948 180.98 82.703 192.06 78.4446 202.398C74.1861 212.736 67.9444 222.13 60.0759 230.042C52.2073 237.955 42.866 244.232 32.5852 248.514C22.3044 252.796 11.2856 255 0.157765 255L0.157768 169.79L84.8948 169.79Z" fill="url(#paint4_linear)"/>
<path opacity="0.5" d="M169.158 212.079C169.158 235.348 150.295 254.211 127.027 254.211C103.758 254.211 84.8948 235.348 84.8948 212.079C84.8948 188.81 103.758 169.947 127.027 169.947C150.295 169.947 169.158 188.81 169.158 212.079Z" fill="url(#paint5_linear)"/>
<defs>
<linearGradient id="paint0_linear" x1="-3.70397e-06" y1="84.737" x2="169.474" y2="84.737" gradientUnits="userSpaceOnUse">
<stop stop-color="#007AFE"/>
<stop offset="1" stop-color="#32B0FC" stop-opacity="0"/>
</linearGradient>
<linearGradient id="paint1_linear" x1="84.8947" y1="84.8948" x2="84.8947" y2="254.369" gradientUnits="userSpaceOnUse">
<stop stop-color="#007AFE"/>
<stop offset="1" stop-color="#007AFE" stop-opacity="0"/>
</linearGradient>
<linearGradient id="paint2_linear" x1="169.79" y1="0.157772" x2="0.315533" y2="0.157794" gradientUnits="userSpaceOnUse">
<stop stop-color="#CCCCCC"/>
<stop offset="1" stop-color="white" stop-opacity="0"/>
</linearGradient>
<linearGradient id="paint3_linear" x1="0.157779" y1="170.105" x2="0.157779" y2="-0.31561" gradientUnits="userSpaceOnUse">
<stop stop-color="#CCCCCC"/>
<stop offset="1" stop-color="#CCCCCC" stop-opacity="0"/>
</linearGradient>
<linearGradient id="paint4_linear" x1="0.157779" y1="255" x2="0.157779" y2="84.5792" gradientUnits="userSpaceOnUse">
<stop stop-color="#007AFE"/>
<stop offset="1" stop-color="#CCCCCC" stop-opacity="0"/>
</linearGradient>
<linearGradient id="paint5_linear" x1="127.027" y1="169.947" x2="127.027" y2="254.211" gradientUnits="userSpaceOnUse">
<stop stop-color="#CCCCCC"/>
<stop offset="1" stop-color="#CCCCCC" stop-opacity="0"/>
</linearGradient>
</defs>
</svg>
