<svg width="171" height="255" viewBox="0 0 171 255" fill="none" xmlns="http://www.w3.org/2000/svg">
<path opacity="0.5" d="M85.5148 0C74.3732 4.87015e-07 63.3407 2.1945 53.0472 6.45821C42.7537 10.7219 33.4008 16.9713 25.5225 24.8496C17.6442 32.728 11.3948 42.0809 7.13106 52.3744C2.86735 62.6679 0.672851 73.7004 0.672852 84.842L85.5149 84.842L85.5148 0Z" fill="url(#paint0_linear)"/>
<path opacity="0.5" d="M85.5148 169.684C74.3732 169.684 63.3407 171.891 53.0472 176.178C42.7537 180.466 33.4008 186.75 25.5225 194.672C17.6442 202.595 11.3948 212 7.13106 222.351C2.86735 232.702 0.672851 243.796 0.672852 255L85.5149 255L85.5148 169.684Z" fill="url(#paint1_linear)"/>
<path opacity="0.5" d="M170.831 0C159.689 4.87015e-07 148.657 2.1945 138.363 6.45821C128.07 10.7219 118.717 16.9713 110.838 24.8496C102.96 32.728 96.7107 42.0809 92.447 52.3744C88.1833 62.6679 85.9888 73.7004 85.9888 84.842L170.831 84.842L170.831 0Z" fill="url(#paint2_linear)"/>
<path opacity="0.5" d="M85.5148 255C96.6564 255 107.689 252.805 117.982 248.542C128.276 244.278 137.629 238.029 145.507 230.15C153.385 222.272 159.635 212.919 163.899 202.626C168.162 192.332 170.357 181.3 170.357 170.158L85.5148 170.158L85.5148 255Z" fill="url(#paint3_linear)"/>
<path opacity="0.5" d="M0.672852 85.3159C11.8767 85.3159 22.9708 87.5104 33.3219 91.7741C43.6729 96.0378 53.078 102.287 61.0004 110.166C68.9227 118.044 75.207 127.397 79.4945 137.69C83.7821 147.984 85.9888 159.016 85.9888 170.158H0.672855L0.672852 85.3159Z" fill="url(#paint4_linear)"/>
<path opacity="0.5" d="M170.357 127.5C170.357 150.798 151.47 169.684 128.173 169.684C104.875 169.684 85.9888 150.798 85.9888 127.5C85.9888 104.202 104.875 85.3159 128.173 85.3159C151.47 85.3159 170.357 104.202 170.357 127.5Z" fill="url(#paint5_linear)"/>
<defs>
<linearGradient id="paint0_linear" x1="0.672848" y1="84.842" x2="170.357" y2="84.842" gradientUnits="userSpaceOnUse">
<stop stop-color="#007AFE"/>
<stop offset="1" stop-color="#32B0FC" stop-opacity="0"/>
</linearGradient>
<linearGradient id="paint1_linear" x1="0.672848" y1="255" x2="170.357" y2="255" gradientUnits="userSpaceOnUse">
<stop stop-color="#007AFE"/>
<stop offset="1" stop-color="#007AFE" stop-opacity="0"/>
</linearGradient>
<linearGradient id="paint2_linear" x1="85.9888" y1="84.842" x2="255.673" y2="84.842" gradientUnits="userSpaceOnUse">
<stop stop-color="#CCCCCC"/>
<stop offset="1" stop-color="white" stop-opacity="0"/>
</linearGradient>
<linearGradient id="paint3_linear" x1="170.357" y1="170.158" x2="0.672775" y2="170.158" gradientUnits="userSpaceOnUse">
<stop stop-color="#CCCCCC"/>
<stop offset="1" stop-color="#CCCCCC" stop-opacity="0"/>
</linearGradient>
<linearGradient id="paint4_linear" x1="85.9888" y1="170.158" x2="-84.6431" y2="170.158" gradientUnits="userSpaceOnUse">
<stop stop-color="#CCCCCC"/>
<stop offset="1" stop-color="#CCCCCC" stop-opacity="0"/>
</linearGradient>
<linearGradient id="paint5_linear" x1="128.173" y1="85.3159" x2="128.173" y2="169.684" gradientUnits="userSpaceOnUse">
<stop stop-color="#007AFE"/>
<stop offset="1" stop-color="#007AFE" stop-opacity="0"/>
</linearGradient>
</defs>
</svg>
