<svg width="173" height="255" viewBox="0 0 173 255" fill="none" xmlns="http://www.w3.org/2000/svg">
<path opacity="0.5" d="M172.047 169.206C172.047 157.939 169.84 146.783 165.552 136.373C161.265 125.964 154.98 116.507 147.058 108.54C139.135 100.573 129.73 94.2535 119.379 89.9419C109.027 85.6303 97.9331 83.4112 86.729 83.4112L86.729 169.206H172.047Z" fill="url(#paint0_linear)"/>
<path opacity="0.5" d="M1.41125 169.206C1.41126 180.472 3.61807 191.629 7.90569 202.038C12.1933 212.447 18.4778 221.905 26.4003 229.871C34.3227 237.838 43.7281 244.158 54.0793 248.469C64.4306 252.781 75.5249 255 86.729 255L86.729 169.206L1.41125 169.206Z" fill="url(#paint1_linear)"/>
<path opacity="0.5" d="M173 85.3178C161.733 85.3178 150.577 83.1109 140.168 78.8233C129.759 74.5357 120.301 68.2513 112.334 60.3288C104.367 52.4063 98.0478 43.0009 93.7363 32.6497C89.4247 22.2985 87.2056 11.2041 87.2056 2.08342e-08L173 0L173 85.3178Z" fill="url(#paint2_linear)"/>
<path opacity="0.5" d="M172.047 255C172.047 243.733 169.84 232.577 165.552 222.168C161.265 211.759 154.98 202.301 147.058 194.334C139.135 186.367 129.73 180.048 119.379 175.736C109.027 171.425 97.9331 169.206 86.729 169.206L86.729 255H172.047Z" fill="url(#paint3_linear)"/>
<path opacity="0.5" d="M1.41125 169.206C1.41125 157.939 3.61806 146.783 7.90568 136.373C12.1933 125.964 18.4778 116.507 26.4002 108.54C34.3227 100.573 43.7281 94.2535 54.0793 89.9419C64.4305 85.6303 75.5249 83.4112 86.729 83.4112L86.729 169.206L1.41125 169.206Z" fill="url(#paint4_linear)"/>
<path opacity="0.5" d="M85.2991 42.8972C85.2991 66.3254 66.3068 85.3177 42.8786 85.3177C19.4503 85.3177 0.458008 66.3254 0.458008 42.8972C0.458008 19.469 19.4503 0.476624 42.8786 0.476624C66.3068 0.476624 85.2991 19.469 85.2991 42.8972Z" fill="url(#paint5_linear)"/>
<defs>
<linearGradient id="paint0_linear" x1="86.729" y1="83.4112" x2="86.729" y2="255" gradientUnits="userSpaceOnUse">
<stop stop-color="#007AFE"/>
<stop offset="1" stop-color="#32B0FC" stop-opacity="0"/>
</linearGradient>
<linearGradient id="paint1_linear" x1="86.729" y1="255" x2="86.729" y2="83.4112" gradientUnits="userSpaceOnUse">
<stop stop-color="#007AFE"/>
<stop offset="1" stop-color="#007AFE" stop-opacity="0"/>
</linearGradient>
<linearGradient id="paint2_linear" x1="87.2056" y1="0" x2="258.794" y2="-7.50038e-06" gradientUnits="userSpaceOnUse">
<stop stop-color="#CCCCCC"/>
<stop offset="1" stop-color="white" stop-opacity="0"/>
</linearGradient>
<linearGradient id="paint3_linear" x1="86.729" y1="169.206" x2="86.729" y2="340.794" gradientUnits="userSpaceOnUse">
<stop stop-color="#CCCCCC"/>
<stop offset="1" stop-color="#CCCCCC" stop-opacity="0"/>
</linearGradient>
<linearGradient id="paint4_linear" x1="86.729" y1="83.4112" x2="86.729" y2="255" gradientUnits="userSpaceOnUse">
<stop stop-color="#CCCCCC"/>
<stop offset="1" stop-color="#CCCCCC" stop-opacity="0"/>
</linearGradient>
<linearGradient id="paint5_linear" x1="42.8786" y1="0.476624" x2="42.8786" y2="85.3177" gradientUnits="userSpaceOnUse">
<stop stop-color="#007AFE"/>
<stop offset="1" stop-color="#007AFE" stop-opacity="0"/>
</linearGradient>
</defs>
</svg>
