<svg width="32" height="32" viewBox="0 0 32 32" fill="none" xmlns="http://www.w3.org/2000/svg">
<path d="M20.8 16C20.8 17.2731 20.2943 18.494 19.3941 19.3941C18.494 20.2943 17.2731 20.8 16 20.8C14.727 20.8 13.5061 20.2943 12.6059 19.3941C11.7057 18.494 11.2 17.2731 11.2 16C11.2 15.7264 11.2288 15.4592 11.2784 15.2H9.60001V21.5952C9.60001 22.04 9.96001 22.4 10.4048 22.4H21.5968C21.81 22.3996 22.0143 22.3146 22.1649 22.1637C22.3154 22.0128 22.4 21.8084 22.4 21.5952V15.2H20.7216C20.7712 15.4592 20.8 15.7264 20.8 16ZM16 19.2C16.4204 19.1999 16.8365 19.117 17.2248 18.9561C17.6131 18.7951 17.9659 18.5593 18.2631 18.262C18.5602 17.9647 18.7959 17.6117 18.9567 17.2234C19.1174 16.835 19.2001 16.4187 19.2 15.9984C19.1999 15.5781 19.117 15.1619 18.9561 14.7736C18.7951 14.3853 18.5593 14.0325 18.262 13.7353C17.9647 13.4382 17.6117 13.2025 17.2234 13.0418C16.835 12.881 16.4187 12.7983 15.9984 12.7984C15.1495 12.7986 14.3355 13.1361 13.7353 13.7365C13.1352 14.3369 12.7982 15.1511 12.7984 16C12.7986 16.8489 13.1361 17.663 13.7365 18.2631C14.3369 18.8632 15.1511 19.2002 16 19.2ZM19.84 12.64H21.7584C21.8859 12.64 22.0081 12.5895 22.0984 12.4995C22.1887 12.4096 22.2396 12.2875 22.24 12.16V10.2416C22.24 10.1139 22.1893 9.99139 22.099 9.90107C22.0086 9.81075 21.8861 9.76001 21.7584 9.76001H19.84C19.7123 9.76001 19.5898 9.81075 19.4995 9.90107C19.4092 9.99139 19.3584 10.1139 19.3584 10.2416V12.16C19.36 12.424 19.576 12.64 19.84 12.64ZM16 0.640015C11.9263 0.640015 8.01941 2.2583 5.13885 5.13885C2.2583 8.01941 0.640015 11.9263 0.640015 16C0.640015 20.0737 2.2583 23.9806 5.13885 26.8612C8.01941 29.7417 11.9263 31.36 16 31.36C18.0171 31.36 20.0145 30.9627 21.878 30.1908C23.7416 29.4189 25.4349 28.2875 26.8612 26.8612C28.2875 25.4349 29.4189 23.7416 30.1908 21.878C30.9627 20.0145 31.36 18.0171 31.36 16C31.36 13.9829 30.9627 11.9856 30.1908 10.122C29.4189 8.25844 28.2875 6.56516 26.8612 5.13885C25.4349 3.71255 23.7416 2.58114 21.878 1.80923C20.0145 1.03731 18.0171 0.640015 16 0.640015ZM24 22.2224C24 23.2 23.2 24 22.2224 24H9.77761C8.80001 24 8.00001 23.2 8.00001 22.2224V9.77761C8.00001 8.80001 8.80001 8.00001 9.77761 8.00001H22.2224C23.2 8.00001 24 8.80001 24 9.77761V22.2224Z" fill="white"/>
</svg>
