<svg width="64" height="64" viewBox="0 0 64 64" fill="none" xmlns="http://www.w3.org/2000/svg">
<path d="M64 32C64 40.4869 60.6286 48.6263 54.6274 54.6274C48.6263 60.6286 40.4869 64 32 64C23.5131 64 15.3737 60.6286 9.37258 54.6274C3.37142 48.6263 0 40.4869 0 32C0 23.5131 3.37142 15.3737 9.37258 9.37258C15.3737 3.37142 23.5131 0 32 0C40.4869 0 48.6263 3.37142 54.6274 9.37258C60.6286 15.3737 64 23.5131 64 32ZM27.16 20.372C26.8609 20.1591 26.5091 20.0326 26.1429 20.0063C25.7767 19.9801 25.4104 20.0552 25.084 20.2233C24.7577 20.3914 24.4839 20.6462 24.2927 20.9595C24.1015 21.2729 24.0002 21.6329 24 22V42C24.0002 42.3671 24.1015 42.7271 24.2927 43.0405C24.4839 43.3538 24.7577 43.6086 25.084 43.7767C25.4104 43.9448 25.7767 44.0199 26.1429 43.9937C26.5091 43.9674 26.8609 43.8409 27.16 43.628L41.16 33.628C41.4193 33.443 41.6306 33.1987 41.7764 32.9156C41.9222 32.6324 41.9983 32.3185 41.9983 32C41.9983 31.6815 41.9222 31.3676 41.7764 31.0844C41.6306 30.8013 41.4193 30.557 41.16 30.372L27.16 20.372Z" fill="white"/>
</svg>
