<svg width="32" height="32" viewBox="0 0 32 32" fill="none" xmlns="http://www.w3.org/2000/svg">
<path d="M20.7999 16C20.7999 17.2731 20.2942 18.494 19.394 19.3941C18.4938 20.2943 17.2729 20.8 15.9999 20.8C14.7269 20.8 13.506 20.2943 12.6058 19.3941C11.7056 18.494 11.1999 17.2731 11.1999 16C11.1999 15.7264 11.2287 15.4592 11.2783 15.2H9.59989V21.5952C9.59989 22.04 9.95989 22.4 10.4047 22.4H21.5967C21.8099 22.3996 22.0142 22.3146 22.1647 22.1637C22.3153 22.0128 22.3999 21.8084 22.3999 21.5952V15.2H20.7215C20.7711 15.4592 20.7999 15.7264 20.7999 16ZM15.9999 19.2C16.4202 19.1999 16.8364 19.117 17.2247 18.9561C17.613 18.7951 17.9658 18.5593 18.263 18.262C18.5601 17.9647 18.7958 17.6117 18.9566 17.2234C19.1173 16.835 19.2 16.4187 19.1999 15.9984C19.1998 15.5781 19.1169 15.1619 18.9559 14.7736C18.795 14.3853 18.5591 14.0325 18.2618 13.7353C17.9645 13.4382 17.6116 13.2025 17.2232 13.0418C16.8349 12.881 16.4186 12.7983 15.9983 12.7984C15.1494 12.7986 14.3353 13.1361 13.7352 13.7365C13.1351 14.3369 12.7981 15.1511 12.7983 16C12.7985 16.8489 13.1359 17.663 13.7364 18.2631C14.3368 18.8632 15.151 19.2002 15.9999 19.2ZM19.8399 12.64H21.7583C21.8857 12.64 22.008 12.5895 22.0983 12.4995C22.1885 12.4096 22.2395 12.2875 22.2399 12.16V10.2416C22.2399 10.1139 22.1892 9.99139 22.0988 9.90107C22.0085 9.81075 21.886 9.76001 21.7583 9.76001H19.8399C19.7122 9.76001 19.5897 9.81075 19.4993 9.90107C19.409 9.99139 19.3583 10.1139 19.3583 10.2416V12.16C19.3599 12.424 19.5759 12.64 19.8399 12.64ZM15.9999 0.640015C11.9262 0.640015 8.01929 2.2583 5.13873 5.13885C2.25817 8.01941 0.639893 11.9263 0.639893 16C0.639893 20.0737 2.25817 23.9806 5.13873 26.8612C8.01929 29.7417 11.9262 31.36 15.9999 31.36C18.017 31.36 20.0144 30.9627 21.8779 30.1908C23.7415 29.4189 25.4347 28.2875 26.8611 26.8612C28.2874 25.4349 29.4188 23.7416 30.1907 21.878C30.9626 20.0145 31.3599 18.0171 31.3599 16C31.3599 13.9829 30.9626 11.9856 30.1907 10.122C29.4188 8.25844 28.2874 6.56516 26.8611 5.13885C25.4347 3.71255 23.7415 2.58114 21.8779 1.80923C20.0144 1.03731 18.017 0.640015 15.9999 0.640015ZM23.9999 22.2224C23.9999 23.2 23.1999 24 22.2223 24H9.77749C8.79989 24 7.99989 23.2 7.99989 22.2224V9.77761C7.99989 8.80001 8.79989 8.00001 9.77749 8.00001H22.2223C23.1999 8.00001 23.9999 8.80001 23.9999 9.77761V22.2224Z" fill="#191820"/>
</svg>
