<svg width="32" height="32" viewBox="0 0 32 32" fill="none" xmlns="http://www.w3.org/2000/svg">
<path d="M15.9999 0.640015C7.51669 0.640015 0.639893 7.51682 0.639893 16C0.639893 24.4832 7.51669 31.36 15.9999 31.36C24.4831 31.36 31.3599 24.4832 31.3599 16C31.3599 7.51682 24.4831 0.640015 15.9999 0.640015ZM12.2399 22.3664H9.12949V12.3568H12.2399V22.3664ZM10.6655 11.128C9.68309 11.128 9.04789 10.432 9.04789 9.57121C9.04789 8.69281 9.70229 8.01761 10.7055 8.01761C11.7087 8.01761 12.3231 8.69281 12.3423 9.57121C12.3423 10.432 11.7087 11.128 10.6655 11.128ZM23.5999 22.3664H20.4895V16.8192C20.4895 15.528 20.0383 14.6512 18.9135 14.6512C18.0543 14.6512 17.5439 15.2448 17.3183 15.816C17.2351 16.0192 17.2143 16.3072 17.2143 16.5936V22.3648H14.1023V15.5488C14.1023 14.2992 14.0623 13.2544 14.0207 12.3552H16.7231L16.8655 13.7456H16.9279C17.3375 13.0928 18.3407 12.1296 20.0191 12.1296C22.0655 12.1296 23.5999 13.5008 23.5999 16.448V22.3664Z" fill="#191820"/>
</svg>
