<svg width="32" height="32" viewBox="0 0 32 32" fill="none" xmlns="http://www.w3.org/2000/svg">
<path d="M16.0239 15.9184H15.9759C14.0703 15.9184 12.3919 15.4336 11.3983 16.3472C11.1283 16.5871 10.9133 16.8823 10.7678 17.2128C10.6223 17.5433 10.5497 17.9013 10.5551 18.2624C10.5551 21.2256 12.9279 21.5904 15.9775 21.5904H16.0239C19.0719 21.5904 21.4463 21.224 21.4463 18.2624C21.4463 17.5536 21.1967 16.8928 20.6031 16.3472C19.6079 15.4336 17.9295 15.9184 16.0239 15.9184ZM13.4287 19.968C12.8479 19.968 12.3791 19.3152 12.3791 18.512C12.3791 17.7088 12.8479 17.0592 13.4287 17.0592C14.0095 17.0592 14.4799 17.7088 14.4799 18.512C14.4815 19.3152 14.0111 19.968 13.4287 19.968ZM18.5695 19.968C17.9887 19.968 17.5183 19.3152 17.5183 18.512C17.5183 17.7088 17.9887 17.0592 18.5695 17.0592C19.1487 17.0592 19.6191 17.7088 19.6191 18.512C19.6207 19.3152 19.1503 19.968 18.5695 19.968ZM15.9999 0.640015C7.51669 0.640015 0.639893 7.51682 0.639893 16C0.639893 24.4832 7.51669 31.36 15.9999 31.36C24.4831 31.36 31.3599 24.4832 31.3599 16C31.3599 7.51682 24.4831 0.640015 15.9999 0.640015ZM17.4015 22.3024C17.1263 22.3024 16.5791 22.3024 15.9999 22.3056C15.4207 22.3024 14.8735 22.3024 14.5983 22.3024C13.3823 22.3024 8.56309 22.208 8.56309 16.4C8.56309 15.0656 9.02069 14.088 9.77109 13.272C9.65269 12.9776 9.64629 11.3008 10.2831 9.69442C10.2831 9.69442 11.7487 9.85441 13.9647 11.376C14.4271 11.2464 15.2143 11.1808 15.9999 11.1808C16.7855 11.1808 17.5711 11.2464 18.0367 11.3744C20.2527 9.85281 21.7183 9.69281 21.7183 9.69281C22.3551 11.2992 22.3503 12.9776 22.2303 13.2704C22.9807 14.0864 23.4383 15.064 23.4383 16.3984C23.4367 22.2096 18.6175 22.3024 17.4015 22.3024Z" fill="#191820"/>
</svg>
