<svg width="32" height="32" viewBox="0 0 32 32" fill="none" xmlns="http://www.w3.org/2000/svg">
<path d="M16 0.640015C7.51682 0.640015 0.640015 7.51682 0.640015 16C0.640015 24.4832 7.51682 31.36 16 31.36C24.4832 31.36 31.36 24.4832 31.36 16C31.36 7.51682 24.4832 0.640015 16 0.640015ZM22.248 13.2224C22.2544 13.3536 22.256 13.4848 22.256 13.6128C22.256 17.6128 19.2144 22.2224 13.6496 22.2224C12.0053 22.2251 10.3952 21.7529 9.01281 20.8624C9.24801 20.8912 9.48961 20.9024 9.73442 20.9024C11.152 20.9024 12.456 20.4208 13.4912 19.608C12.8604 19.5956 12.2491 19.3867 11.7426 19.0104C11.2361 18.6342 10.8596 18.1092 10.6656 17.5088C11.1187 17.595 11.5854 17.5769 12.0304 17.456C11.3457 17.3176 10.7299 16.9465 10.2875 16.4059C9.84516 15.8652 9.60339 15.1882 9.60321 14.4896V14.4528C10.0112 14.6784 10.4784 14.816 10.9744 14.832C10.3325 14.4047 9.87807 13.7483 9.70409 12.997C9.5301 12.2458 9.6497 11.4564 10.0384 10.7904C10.7983 11.7248 11.746 12.4892 12.8201 13.0341C13.8942 13.579 15.0708 13.8923 16.2736 13.9536C16.1207 13.3045 16.1865 12.6231 16.4608 12.0152C16.7352 11.4074 17.2026 10.9072 17.7905 10.5924C18.3784 10.2777 19.0539 10.166 19.7118 10.2747C20.3698 10.3834 20.9734 10.7065 21.4288 11.1936C22.1059 11.0597 22.7552 10.8113 23.3488 10.4592C23.1232 11.1602 22.6507 11.7555 22.0192 12.1344C22.619 12.0622 23.2046 11.9009 23.7568 11.656C23.3512 12.2638 22.8402 12.7943 22.248 13.2224Z" fill="white"/>
</svg>
