<svg width="32" height="32" viewBox="0 0 32 32" fill="none" xmlns="http://www.w3.org/2000/svg">
<path d="M22.6667 28V25.3333C22.6667 23.9188 22.1048 22.5623 21.1046 21.5621C20.1044 20.5619 18.7479 20 17.3334 20H6.66671C5.25222 20 3.89567 20.5619 2.89547 21.5621C1.89528 22.5623 1.33337 23.9188 1.33337 25.3333V28" stroke="#007AFE" stroke-width="2" stroke-linecap="round" stroke-linejoin="round"/>
<path d="M12 14.6667C14.9455 14.6667 17.3333 12.2789 17.3333 9.33333C17.3333 6.38781 14.9455 4 12 4C9.05444 4 6.66663 6.38781 6.66663 9.33333C6.66663 12.2789 9.05444 14.6667 12 14.6667Z" stroke="#007AFE" stroke-width="2" stroke-linecap="round" stroke-linejoin="round"/>
<path d="M30.6666 28V25.3333C30.6657 24.1516 30.2724 23.0037 29.5484 22.0698C28.8245 21.1358 27.8108 20.4688 26.6666 20.1733" stroke="white" stroke-width="2" stroke-linecap="round" stroke-linejoin="round"/>
<path d="M21.3334 4.17334C22.4806 4.46707 23.4974 5.13427 24.2236 6.06975C24.9497 7.00523 25.3438 8.15577 25.3438 9.34C25.3438 10.5242 24.9497 11.6748 24.2236 12.6103C23.4974 13.5457 22.4806 14.2129 21.3334 14.5067" stroke="white" stroke-width="2" stroke-linecap="round" stroke-linejoin="round"/>
</svg>
