<svg width="32" height="32" viewBox="0 0 32 32" fill="none" xmlns="http://www.w3.org/2000/svg">
<path d="M30.0533 8.56004C29.8949 7.92725 29.5723 7.34747 29.1182 6.87925C28.664 6.41103 28.0943 6.07095 27.4666 5.89337C25.1733 5.33337 15.9999 5.33337 15.9999 5.33337C15.9999 5.33337 6.82662 5.33337 4.53328 5.94671C3.90561 6.12429 3.33592 6.46436 2.88174 6.93258C2.42757 7.4008 2.105 7.98059 1.94662 8.61337C1.5269 10.9408 1.3216 13.3018 1.33328 15.6667C1.31832 18.0494 1.52364 20.4284 1.94662 22.7734C2.12123 23.3865 2.45102 23.9442 2.90414 24.3927C3.35726 24.8411 3.91838 25.1651 4.53328 25.3334C6.82662 25.9467 15.9999 25.9467 15.9999 25.9467C15.9999 25.9467 25.1733 25.9467 27.4666 25.3334C28.0943 25.1558 28.664 24.8157 29.1182 24.3475C29.5723 23.8793 29.8949 23.2995 30.0533 22.6667C30.4698 20.3568 30.675 18.0138 30.6666 15.6667C30.6816 13.284 30.4763 10.905 30.0533 8.56004V8.56004Z" stroke="black" stroke-width="2" stroke-linecap="round" stroke-linejoin="round"/>
<path d="M13 20.0266L20.6667 15.6666L13 11.3066V20.0266Z" stroke="black" stroke-width="2" stroke-linecap="round" stroke-linejoin="round"/>
</svg>
